<svg width="783" height="1189" viewBox="0 0 783 1189" fill="none" xmlns="http://www.w3.org/2000/svg">
<g filter="url(#filter0_dii_823_205)">
<path d="M127.414 150.933C127.414 119.674 152.755 94.3329 184.014 94.3329H465.773C497.033 94.3329 522.373 119.674 522.373 150.933V271.012C522.373 272.465 523.551 273.642 525.003 273.642C526.455 273.642 527.633 274.82 527.633 276.272V346.561C527.633 348.014 526.455 349.191 525.003 349.191C523.551 349.191 522.373 350.369 522.373 351.821V848.689C522.373 879.949 497.033 905.289 465.773 905.289H184.014C152.755 905.289 127.414 879.949 127.414 848.69V385.531C127.414 384.211 126.344 383.141 125.024 383.141C123.703 383.141 122.633 382.07 122.633 380.75V321.458C122.633 320.138 123.703 319.067 125.024 319.067C126.344 319.067 127.414 317.997 127.414 316.677V309.504C127.414 308.184 126.344 307.113 125.024 307.113C123.703 307.113 122.633 306.043 122.633 304.723V243.518C122.633 242.198 123.703 241.128 125.024 241.128C126.344 241.128 127.414 240.057 127.414 238.737V150.933Z" fill="white"/>
<path d="M184.015 94.8046H465.773C496.772 94.8047 521.901 119.934 521.901 150.933V271.013C521.901 272.725 523.29 274.114 525.003 274.114C526.195 274.114 527.161 275.08 527.161 276.272V346.561C527.161 347.753 526.195 348.72 525.003 348.72C523.29 348.72 521.901 350.108 521.901 351.821V848.689C521.901 879.688 496.772 904.817 465.773 904.817H184.014C153.015 904.817 127.886 879.688 127.886 848.689V385.531C127.886 383.95 126.604 382.669 125.023 382.669C123.964 382.669 123.105 381.81 123.104 380.75V321.458C123.105 320.398 123.964 319.539 125.023 319.539C126.604 319.539 127.886 318.257 127.886 316.677V309.504C127.886 307.923 126.604 306.642 125.023 306.642C123.964 306.641 123.105 305.782 123.104 304.723V243.518C123.104 242.459 123.964 241.6 125.023 241.6C126.604 241.6 127.886 240.317 127.886 238.736V150.933C127.886 119.934 153.016 94.8046 184.015 94.8046Z" stroke="#EEEEEE" stroke-width="0.943329"/>
</g>
<path d="M182.066 126.024H223.959V130.141C223.959 140.616 232.434 149.109 242.891 149.109H408.775C419.232 149.109 427.707 140.616 427.707 130.141V126.024H468.678C484.688 126.024 497.668 139.029 497.668 155.073V845.797C497.668 861.841 484.688 874.846 468.678 874.846H182.066C166.057 874.846 153.076 861.841 153.076 845.797V155.073C153.076 139.279 165.654 126.431 181.318 126.033L182.066 126.024Z" fill="#FEFEFE" stroke="#F7F7F7"/>
<rect opacity="0.4" x="288.076" y="125.892" width="82.2432" height="7.65053" rx="3.77332" fill="#333333"/>
<rect opacity="0.5" x="383.707" y="121.109" width="17.2137" height="17.2137" rx="8.60685" fill="#313131"/>
<rect opacity="0.5" x="387.531" y="124.935" width="9.56316" height="9.56316" rx="4.78158" fill="white"/>
<rect opacity="0.5" x="242.172" y="125.892" width="7.65053" height="7.65053" rx="3.77332" fill="#333333"/>
<defs>
<filter id="filter0_dii_823_205" x="-2.28882e-05" y="0" width="782.332" height="1188.29" filterUnits="userSpaceOnUse" color-interpolation-filters="sRGB">
<feFlood flood-opacity="0" result="BackgroundImageFix"/>
<feColorMatrix in="SourceAlpha" type="matrix" values="0 0 0 0 0 0 0 0 0 0 0 0 0 0 0 0 0 0 127 0" result="hardAlpha"/>
<feOffset dx="66.0331" dy="94.3329"/>
<feGaussianBlur stdDeviation="94.3329"/>
<feColorMatrix type="matrix" values="0 0 0 0 0 0 0 0 0 0 0 0 0 0 0 0 0 0 0.17 0"/>
<feBlend mode="normal" in2="BackgroundImageFix" result="effect1_dropShadow_823_205"/>
<feBlend mode="normal" in="SourceGraphic" in2="effect1_dropShadow_823_205" result="shape"/>
<feColorMatrix in="SourceAlpha" type="matrix" values="0 0 0 0 0 0 0 0 0 0 0 0 0 0 0 0 0 0 127 0" result="hardAlpha"/>
<feOffset dx="9.43329" dy="18.8666"/>
<feGaussianBlur stdDeviation="14.1499"/>
<feComposite in2="hardAlpha" operator="arithmetic" k2="-1" k3="1"/>
<feColorMatrix type="matrix" values="0 0 0 0 0 0 0 0 0 0 0 0 0 0 0 0 0 0 0.1 0"/>
<feBlend mode="normal" in2="shape" result="effect2_innerShadow_823_205"/>
<feColorMatrix in="SourceAlpha" type="matrix" values="0 0 0 0 0 0 0 0 0 0 0 0 0 0 0 0 0 0 127 0" result="hardAlpha"/>
<feOffset dx="-9.43329" dy="-18.8666"/>
<feGaussianBlur stdDeviation="14.1499"/>
<feComposite in2="hardAlpha" operator="arithmetic" k2="-1" k3="1"/>
<feColorMatrix type="matrix" values="0 0 0 0 0 0 0 0 0 0 0 0 0 0 0 0 0 0 0.1 0"/>
<feBlend mode="normal" in2="effect2_innerShadow_823_205" result="effect3_innerShadow_823_205"/>
</filter>
</defs>
</svg>
